<svg xmlns="http://www.w3.org/2000/svg" xmlns:bx="https://boxy-svg.com" id="Ebene_1" data-name="Ebene 1" viewBox="0 0 578.45 75.99" width="578.45px" height="75.99px"><defs><style>.cls-1{fill:#3c3c3b;}.cls-2{fill:#b78a00;}</style></defs><title>Logo_EE_300x200mm_FNL_neben-v2</title><path class="cls-1" d="M313.72,253.38v-8H272.64a5.67,5.67,0,0,0-5.67,5.67v23.24a5.67,5.67,0,0,0,5.67,5.67h41.08v-8H275v-5.24h24.67v-8H275v-5.34Z" transform="translate(-135.97 -245.34)" style="fill: rgb(255, 255, 255);"></path><path class="cls-1" d="M714.42,253.38v-8H673.34a5.67,5.67,0,0,0-5.67,5.67v23.24a5.67,5.67,0,0,0,5.67,5.67h41.08v-8H675.67v-5.24h24.67v-8H675.67v-5.34Z" transform="translate(-135.97 -245.34)" style="fill: rgb(255, 255, 255);"></path><path class="cls-1" d="M427.35,253.38v-8H386.27a5.67,5.67,0,0,0-5.67,5.67v23.24a5.67,5.67,0,0,0,5.67,5.67h41.08v-8H388.6v-5.24h24.67v-8H388.6v-5.34Z" transform="translate(-135.97 -245.34)" style="fill: rgb(255, 255, 255);"></path><path class="cls-1" d="M480.9,280H439.82a5.67,5.67,0,0,1-5.67-5.67V251.05a5.67,5.67,0,0,1,5.67-5.67H480.9v8H442.15V272H480.9v8Z" transform="translate(-135.97 -245.34)" style="fill: rgb(255, 255, 255);"></path><rect class="cls-1" x="460.55" y="0.04" width="8" height="33.81" style="fill: rgb(255, 255, 255);"></rect><path class="cls-1" d="M529.13,280h-34.9a5.67,5.67,0,0,1-5.67-5.67V245.38h8V272h30.23V245.38h8v28.91A5.66,5.66,0,0,1,529.13,280Z" transform="translate(-135.97 -245.34)" style="fill: rgb(255, 255, 255);"></path><polygon class="cls-1" points="453.02 0.04 404.78 0.04 404.78 8.04 424.9 8.04 424.9 33.85 432.9 33.85 432.9 8.04 453.02 8.04 453.02 0.04" style="fill: rgb(255, 255, 255);"></polygon><path class="cls-1" d="M656.44,245.38A5.67,5.67,0,0,0,651.6,248l-15.54,24.52L620.52,248a5.64,5.64,0,0,0-4.84-2.62h-6.27L631.3,279.9h9.5l21.89-34.52Z" transform="translate(-135.97 -245.34)" style="fill: rgb(255, 255, 255);"></path><polygon class="cls-1" points="224.88 12.22 240.1 0 227.41 0 218.5 7.12 224.88 12.22" style="fill: rgb(255, 255, 255);"></polygon><polygon class="cls-1" points="218.51 17.3 196.81 0 184.16 0.04 205.76 17.3 184.16 34.56 196.85 34.56 212.13 22.38 227.41 34.56 240.1 34.56 218.5 17.3 218.51 17.3" style="fill: rgb(255, 255, 255);"></polygon><path d="M273.11,304.74v4.12h6.64v3.83h-6.64v4.47h7.51v4H268.15V300.77h12.47v4Z" transform="translate(-135.97 -245.34)" style="fill: rgb(255, 255, 255);"></path><path d="M338.36,321.12h-5l-8.29-12.56v12.56h-5V300.76h5l8.29,12.62V300.76h5Z" transform="translate(-135.97 -245.34)" style="fill: rgb(255, 255, 255);"></path><path d="M391.78,307.2a3.69,3.69,0,0,0-1.58-1.55,5.14,5.14,0,0,0-2.42-.54,5,5,0,0,0-3.86,1.58,6,6,0,0,0-1.45,4.22A6.07,6.07,0,0,0,384,315.3a5.55,5.55,0,0,0,4.19,1.58,5.06,5.06,0,0,0,3.09-.93,5.29,5.29,0,0,0,1.84-2.67h-6.29v-3.65h10.79v4.61a9.71,9.71,0,0,1-1.87,3.45,10,10,0,0,1-3.35,2.58,10.3,10.3,0,0,1-4.58,1,10.86,10.86,0,0,1-5.38-1.32,9.34,9.34,0,0,1-3.68-3.67,11.6,11.6,0,0,1,0-10.75,9.34,9.34,0,0,1,3.67-3.68,10.77,10.77,0,0,1,5.37-1.32,10.4,10.4,0,0,1,6.16,1.77,8.35,8.35,0,0,1,3.32,4.9h-5.49Z" transform="translate(-135.97 -245.34)" style="fill: rgb(255, 255, 255);"></path><path d="M441.63,300.77v20.36h-5V300.77Z" transform="translate(-135.97 -245.34)" style="fill: rgb(255, 255, 255);"></path><path d="M499.75,321.12h-5l-8.29-12.56v12.56h-5V300.76h5l8.29,12.62V300.76h5Z" transform="translate(-135.97 -245.34)" style="fill: rgb(255, 255, 255);"></path><path d="M544.61,304.74v4.12h6.64v3.83h-6.64v4.47h7.51v4H539.65V300.77h12.47v4Z" transform="translate(-135.97 -245.34)" style="fill: rgb(255, 255, 255);"></path><path d="M596.61,304.74v4.12h6.64v3.83h-6.64v4.47h7.51v4H591.65V300.77h12.47v4Z" transform="translate(-135.97 -245.34)" style="fill: rgb(255, 255, 255);"></path><path d="M654,321.12l-4.23-7.68h-1.19v7.68h-5V300.76H652a9.14,9.14,0,0,1,4.1.84,5.82,5.82,0,0,1,2.54,2.3,6.44,6.44,0,0,1,.84,3.26,6,6,0,0,1-1.15,3.62,6.14,6.14,0,0,1-3.38,2.26l4.7,8.06H654Zm-5.43-11.19h3.07a2.77,2.77,0,0,0,2-.67,2.52,2.52,0,0,0,.68-1.88,2.48,2.48,0,0,0-.68-1.83,2.85,2.85,0,0,0-2-.67H648.6Z" transform="translate(-135.97 -245.34)" style="fill: rgb(255, 255, 255);"></path><path d="M702.23,320.6a6.51,6.51,0,0,1-2.83-2.15,5.85,5.85,0,0,1-1.12-3.42h5.28a2.62,2.62,0,0,0,.78,1.73,2.48,2.48,0,0,0,1.74.59,2.69,2.69,0,0,0,1.74-.51,1.69,1.69,0,0,0,.64-1.41,1.67,1.67,0,0,0-.51-1.25,4,4,0,0,0-1.25-.81,21.16,21.16,0,0,0-2.1-.72,23,23,0,0,1-3.22-1.22,6.05,6.05,0,0,1-2.15-1.8,5,5,0,0,1-.9-3.1,5.34,5.34,0,0,1,2.06-4.45,8.48,8.48,0,0,1,5.37-1.61,8.57,8.57,0,0,1,5.42,1.61,5.75,5.75,0,0,1,2.2,4.48H708a2.11,2.11,0,0,0-.72-1.55,2.54,2.54,0,0,0-1.71-.57,2.13,2.13,0,0,0-1.45.48,1.85,1.85,0,0,0,.38,2.92,15.22,15.22,0,0,0,2.9,1.19,25.68,25.68,0,0,1,3.21,1.28,6.2,6.2,0,0,1,2.13,1.77,4.73,4.73,0,0,1,.9,3,5.86,5.86,0,0,1-.88,3.16,6.19,6.19,0,0,1-2.57,2.26,8.8,8.8,0,0,1-4,.84A10.3,10.3,0,0,1,702.23,320.6Z" transform="translate(-135.97 -245.34)" style="fill: rgb(255, 255, 255);"></path><polygon class="cls-2" points="67 25.89 60.24 19.63 53.97 19.63 53.97 19.63 47.71 19.63 40.95 25.89 53.97 37.99 67 25.89" style="fill: rgb(255, 255, 255);"></polygon><polygon class="cls-2" points="32.18 30.42 22.68 21.18 19.15 21.18 32.03 9.27 49.33 9.27 39.42 0 27.98 0 0 25.88 53.92 75.99 61.05 69.36 18.95 30.42 32.18 30.42" style="fill: rgb(255, 255, 255);"></polygon><polygon class="cls-2" points="79.86 0 53.69 0 63.61 9.27 75.81 9.27 88.69 21.18 85.16 21.18 75.66 30.42 88.89 30.42 68.09 49.66 61.99 44.48 48.6 44.48 68.05 62.85 107.84 25.88 79.86 0" style="fill: rgb(255, 255, 255);"></polygon></svg>